<?xml version="1.0" encoding="iso-8859-1"?>
<!-- Generator: Adobe Illustrator 19.0.0, SVG Export Plug-In . SVG Version: 6.00 Build 0)  -->
<svg version="1.1" id="Layer_1" xmlns="http://www.w3.org/2000/svg" xmlns:xlink="http://www.w3.org/1999/xlink" x="0px" y="0px"
	 viewBox="0 0 512 512" style="enable-background:new 0 0 512 512;" xml:space="preserve">
<path style="fill:#E4EAF8;" d="M469.779,307.307H42.221c-18.891,0-34.205-15.314-34.205-34.205v-85.511
	c0-18.891,15.314-34.205,34.205-34.205h427.557c18.891,0,34.205,15.314,34.205,34.205v85.511
	C503.983,291.993,488.669,307.307,469.779,307.307z"/>
<path style="fill:#D5DCED;" d="M495.432,230.347c0-38.075-31.266-68.984-69.473-68.401c-37.536,0.573-67.346,31.899-67.346,69.44
	v19.197c-5.419,6.159-8.551,14.153-8.551,22.519v25.653c0,2.893,0.191,5.74,0.504,8.551h119.212
	c18.891,0,34.205-15.314,34.205-34.205l0,0c0-8.366-3.132-16.362-8.551-22.519V230.347z"/>
<path style="fill:#FF5050;" d="M427.023,358.614L427.023,358.614c33.059,0,59.858-26.799,59.858-59.858v-25.653
	c0-9.446-7.656-17.102-17.102-17.102h-85.511c-9.446,0-17.102,7.656-17.102,17.102v25.653
	C367.165,331.814,393.964,358.614,427.023,358.614z"/>
<path style="fill:#C84146;" d="M392.818,298.756v-25.653c0-9.446,7.658-17.102,17.102-17.102h-25.653
	c-9.445,0-17.102,7.656-17.102,17.102v25.653c0,33.059,26.799,59.858,59.858,59.858c4.407,0,8.69-0.509,12.827-1.412
	C412.962,351.325,392.818,327.407,392.818,298.756z"/>
<path d="M469.779,145.37H42.221C18.941,145.37,0,164.31,0,187.591v85.511c0,23.281,18.941,42.221,42.221,42.221H332.96
	c4.427,0,8.017-3.589,8.017-8.017c0-4.427-3.589-8.017-8.017-8.017H42.221c-14.44,0-26.188-11.748-26.188-26.188v-85.511
	c0-14.44,11.748-26.188,26.188-26.188h427.557c14.44,0,26.188,11.748,26.188,26.188v42.756c0,4.427,3.589,8.017,8.017,8.017
	c4.427,0,8.017-3.589,8.017-8.017v-42.756C512,164.31,493.059,145.37,469.779,145.37z"/>
<path d="M477.795,249.302v-18.956c0-27.995-22.777-50.772-50.772-50.772s-50.772,22.777-50.772,50.772v18.956
	c-9.93,3.354-17.102,12.752-17.102,23.8v25.653c0,37.426,30.449,67.875,67.875,67.875s67.875-30.448,67.875-67.875v-25.653
	C494.898,262.054,487.725,252.656,477.795,249.302z M427.023,195.608c19.155,0,34.739,15.584,34.739,34.739v17.637h-69.478v-17.637
	C392.284,211.192,407.868,195.608,427.023,195.608z M478.864,298.756c0,28.585-23.256,51.841-51.841,51.841
	c-28.585,0-51.841-23.256-51.841-51.841v-25.653c0-5.01,4.076-9.086,9.086-9.086h85.511c5.01,0,9.086,4.076,9.086,9.086V298.756z"/>
<path d="M427.023,282.188c-9.136,0-16.568,7.432-16.568,16.568c0,6.228,3.458,11.659,8.551,14.489v5.553
	c0,4.427,3.589,8.017,8.017,8.017c4.427,0,8.017-3.589,8.017-8.017v-5.553c5.093-2.829,8.551-8.26,8.551-14.489
	C443.591,289.62,436.159,282.188,427.023,282.188z"/>
<path d="M241.258,209.236c-2.214-3.835-7.117-5.149-10.951-2.934l-17.597,10.16v-20.32c0-4.427-3.589-8.017-8.017-8.017
	s-8.017,3.589-8.017,8.017v20.32l-17.597-10.16c-3.835-2.215-8.737-0.9-10.951,2.934c-2.214,3.834-0.9,8.737,2.934,10.951
	l17.597,10.16l-17.597,10.16c-3.834,2.214-5.148,7.117-2.934,10.951c1.485,2.572,4.179,4.009,6.95,4.009
	c1.36,0,2.739-0.346,4.001-1.075l17.597-10.16v20.32c0,4.427,3.589,8.017,8.017,8.017s8.017-3.589,8.017-8.017v-20.32l17.597,10.16
	c1.262,0.729,2.641,1.075,4.001,1.075c2.771,0,5.465-1.439,6.95-4.009c2.214-3.834,0.9-8.737-2.934-10.951l-17.597-10.16
	l17.597-10.16C242.158,217.973,243.472,213.07,241.258,209.236z"/>
<path d="M138.644,209.236c-2.214-3.835-7.117-5.149-10.951-2.934l-17.597,10.16v-20.32c0-4.427-3.589-8.017-8.017-8.017
	c-4.427,0-8.017,3.589-8.017,8.017v20.32l-17.597-10.16c-3.835-2.215-8.737-0.9-10.951,2.934s-0.9,8.737,2.934,10.951l17.597,10.16
	l-17.597,10.16c-3.834,2.214-5.148,7.117-2.934,10.951c1.485,2.572,4.179,4.009,6.95,4.009c1.36,0,2.739-0.346,4.001-1.075
	l17.597-10.16v20.32c0,4.427,3.589,8.017,8.017,8.017c4.427,0,8.017-3.589,8.017-8.017v-20.32l17.597,10.16
	c1.262,0.729,2.641,1.075,4.001,1.075c2.771,0,5.465-1.439,6.95-4.009c2.214-3.834,0.9-8.737-2.934-10.951l-17.597-10.16
	l17.597-10.16C139.544,217.973,140.858,213.07,138.644,209.236z"/>
<path d="M343.872,209.236c-2.214-3.835-7.117-5.149-10.951-2.934l-17.597,10.16v-20.32c0-4.427-3.589-8.017-8.017-8.017
	c-4.427,0-8.017,3.589-8.017,8.017v20.32l-17.597-10.16c-3.835-2.215-8.737-0.9-10.951,2.934c-2.214,3.834-0.9,8.737,2.934,10.951
	l17.597,10.16l-17.597,10.16c-3.834,2.214-5.148,7.117-2.934,10.951c1.485,2.572,4.179,4.009,6.95,4.009
	c1.36,0,2.739-0.346,4.001-1.075l17.597-10.16v20.32c0,4.427,3.589,8.017,8.017,8.017c4.427,0,8.017-3.589,8.017-8.017v-20.32
	l17.597,10.16c1.262,0.729,2.641,1.075,4.001,1.075c2.771,0,5.465-1.439,6.95-4.009c2.214-3.834,0.9-8.737-2.934-10.951
	l-17.597-10.16l17.597-10.16C344.772,217.973,346.085,213.07,343.872,209.236z"/>
<g>
</g>
<g>
</g>
<g>
</g>
<g>
</g>
<g>
</g>
<g>
</g>
<g>
</g>
<g>
</g>
<g>
</g>
<g>
</g>
<g>
</g>
<g>
</g>
<g>
</g>
<g>
</g>
<g>
</g>
</svg>
