<?xml version="1.0" encoding="iso-8859-1"?>
<!-- Generator: Adobe Illustrator 19.0.0, SVG Export Plug-In . SVG Version: 6.00 Build 0)  -->
<svg version="1.1" id="Layer_1" xmlns="http://www.w3.org/2000/svg" xmlns:xlink="http://www.w3.org/1999/xlink" x="0px" y="0px"
	 viewBox="0 0 512 512" style="enable-background:new 0 0 512 512;" xml:space="preserve">
<path style="fill:#8CC0C5;" d="M119.817,166.4l-5.402-24.405l215.006-99.994c5.111-2.381,10.556-3.584,16.179-3.584
	c14.891,0,28.57,8.704,34.833,22.178L429.602,166.4H119.817z"/>
<circle style="fill:#FEDEA1;" cx="422.4" cy="396.8" r="25.6"/>
<rect x="64" y="217.6" style="fill:#BFA779;" width="102.4" height="76.8"/>
<circle style="fill:#FF877F;" cx="371.2" cy="396.8" r="25.6"/>
<path style="fill:#6FB0B6;" d="M51.2,473.6c-21.171,0-38.4-17.229-38.4-38.4V204.8c0-21.171,17.229-38.4,38.4-38.4h409.6
	c21.171,0,38.4,17.229,38.4,38.4v230.4c0,21.171-17.229,38.4-38.4,38.4H51.2z M405.367,415.718
	c3.379,3.046,9.079,6.682,17.033,6.682c14.114,0,25.6-11.486,25.6-25.6s-11.486-25.6-25.6-25.6c-7.953,0-13.653,3.635-17.033,6.682
	l-8.567,7.706l-8.567-7.706c-3.379-3.046-9.079-6.682-17.033-6.682c-14.114,0-25.6,11.486-25.6,25.6s11.486,25.6,25.6,25.6
	c7.953,0,13.653-3.635,17.033-6.682l8.567-7.706L405.367,415.718z M76.8,217.6c-7.057,0-12.8,5.743-12.8,12.8v51.2
	c0,7.057,5.743,12.8,12.8,12.8h76.8c7.057,0,12.8-5.743,12.8-12.8v-51.2c0-7.057-5.743-12.8-12.8-12.8H76.8z"/>
<g>
	<path style="fill:#573A32;" d="M460.8,153.6h-23.014l-45.747-98.423c-11.955-25.634-42.411-36.719-68.045-24.764L59.238,153.6H51.2
		C22.921,153.6,0,176.52,0,204.8v230.4c0,28.279,22.921,51.2,51.2,51.2h409.6c28.279,0,51.2-22.921,51.2-51.2V204.8
		C512,176.52,489.079,153.6,460.8,153.6z M334.814,53.615c12.791-5.965,28.058-0.41,34.022,12.382L409.54,153.6H119.817
		L334.814,53.615z M486.4,435.2c0,14.114-11.486,25.6-25.6,25.6H51.2c-14.114,0-25.6-11.486-25.6-25.6V204.8
		c0-14.114,11.486-25.6,25.6-25.6h409.6c14.114,0,25.6,11.486,25.6,25.6V435.2z"/>
	<path style="fill:#573A32;" d="M76.8,307.2h76.8c14.14,0,25.6-11.46,25.6-25.6v-51.2c0-14.14-11.46-25.6-25.6-25.6H76.8
		c-14.14,0-25.6,11.46-25.6,25.6v51.2C51.2,295.74,62.66,307.2,76.8,307.2z M76.8,230.4h76.8v51.2H76.8V230.4z"/>
	<rect x="51.2" y="384" style="fill:#573A32;" width="256" height="25.6"/>
	<path style="fill:#573A32;" d="M422.4,358.4c-9.882,0-18.799,3.84-25.6,9.967c-6.801-6.127-15.718-9.967-25.6-9.967
		c-21.205,0-38.4,17.195-38.4,38.4c0,21.205,17.195,38.4,38.4,38.4c9.882,0,18.799-3.84,25.6-9.967
		c6.801,6.127,15.718,9.967,25.6,9.967c21.205,0,38.4-17.195,38.4-38.4C460.8,375.595,443.605,358.4,422.4,358.4z M371.2,409.6
		c-7.057,0-12.8-5.743-12.8-12.8s5.743-12.8,12.8-12.8s12.8,5.743,12.8,12.8S378.257,409.6,371.2,409.6z M422.4,409.6
		c-7.057,0-12.8-5.743-12.8-12.8s5.743-12.8,12.8-12.8s12.8,5.743,12.8,12.8S429.457,409.6,422.4,409.6z"/>
</g>
<g>
</g>
<g>
</g>
<g>
</g>
<g>
</g>
<g>
</g>
<g>
</g>
<g>
</g>
<g>
</g>
<g>
</g>
<g>
</g>
<g>
</g>
<g>
</g>
<g>
</g>
<g>
</g>
<g>
</g>
</svg>
